<?xml version="1.0" standalone="no"?>
<!DOCTYPE svg PUBLIC "-//W3C//DTD SVG 20010904//EN"
 "http://www.w3.org/TR/2001/REC-SVG-20010904/DTD/svg10.dtd">
<svg version="1.0" xmlns="http://www.w3.org/2000/svg"
 width="480.000000pt" height="480.000000pt" viewBox="0 0 480.000000 480.000000"
 preserveAspectRatio="xMidYMid meet">
<metadata>
Created by potrace 1.14, written by Peter Selinger 2001-2017
</metadata>
<g transform="translate(0.000000,480.000000) scale(0.100000,-0.100000)"
fill="#000000" stroke="none">
<path d="M3298 4495 c-2 -1 -57 -5 -123 -9 -116 -6 -184 -11 -310 -21 -240
-19 -643 -23 -870 -9 -262 16 -947 10 -1051 -10 -11 -2 -41 -7 -69 -10 -82
-11 -211 -44 -257 -66 -75 -35 -157 -124 -198 -215 -28 -61 -58 -178 -67 -260
-13 -123 -7 -508 11 -655 3 -19 7 -64 11 -100 4 -36 8 -81 10 -100 16 -148 20
-319 19 -745 -1 -269 -4 -524 -7 -565 -16 -194 -22 -316 -22 -445 0 -136 12
-396 21 -463 2 -17 6 -49 9 -70 14 -100 127 -259 225 -315 44 -25 158 -58 250
-72 25 -4 569 -9 1211 -10 641 -2 1253 -6 1360 -10 397 -16 482 -10 648 42
213 67 350 223 387 438 16 93 23 1089 10 1440 -4 105 -9 314 -11 465 -2 151
-7 325 -11 385 -10 151 -10 384 -1 480 17 161 18 182 18 270 0 50 -2 99 -4
110 -29 131 -80 219 -178 308 -130 119 -243 164 -509 202 -44 7 -496 16 -502
10z"/>
</g>
</svg>
